<svg width="117" height="24" viewBox="0 0 117 24" fill="none" xmlns="http://www.w3.org/2000/svg">
<path d="M24.448 19C24.288 19 24.152 18.944 24.04 18.832C23.928 18.72 23.872 18.584 23.872 18.424V2.8C23.872 2.624 23.92 2.48 24.016 2.368C24.128 2.256 24.272 2.2 24.448 2.2H26.56C26.736 2.2 26.88 2.256 26.992 2.368C27.104 2.48 27.16 2.624 27.16 2.8V8.416L32.584 2.632C32.792 2.344 33.104 2.2 33.52 2.2H35.896C36.024 2.2 36.136 2.248 36.232 2.344C36.344 2.44 36.4 2.56 36.4 2.704C36.4 2.816 36.368 2.912 36.304 2.992L29.704 10.24L36.76 18.184C36.84 18.28 36.88 18.384 36.88 18.496C36.88 18.64 36.824 18.76 36.712 18.856C36.616 18.952 36.504 19 36.376 19H33.904C33.504 19 33.192 18.856 32.968 18.568L27.16 12.208V18.424C27.16 18.6 27.104 18.744 26.992 18.856C26.88 18.952 26.736 19 26.56 19H24.448ZM42.8644 19.24C41.3924 19.24 40.2324 18.76 39.3844 17.8C38.5364 16.824 38.1124 15.504 38.1124 13.84V7.096C38.1124 6.936 38.1684 6.8 38.2804 6.688C38.3924 6.576 38.5284 6.52 38.6884 6.52H40.8004C40.9764 6.52 41.1124 6.576 41.2084 6.688C41.3204 6.784 41.3764 6.92 41.3764 7.096V13.696C41.3764 15.68 42.2484 16.672 43.9924 16.672C44.8244 16.672 45.4804 16.408 45.9604 15.88C46.4564 15.352 46.7044 14.624 46.7044 13.696V7.096C46.7044 6.936 46.7604 6.8 46.8724 6.688C46.9844 6.576 47.1204 6.52 47.2804 6.52H49.3924C49.5684 6.52 49.7044 6.576 49.8004 6.688C49.9124 6.784 49.9684 6.92 49.9684 7.096V18.424C49.9684 18.584 49.9124 18.72 49.8004 18.832C49.7044 18.944 49.5684 19 49.3924 19H47.4484C47.2884 19 47.1524 18.944 47.0404 18.832C46.9284 18.72 46.8724 18.584 46.8724 18.424V17.44C45.9764 18.64 44.6404 19.24 42.8644 19.24ZM53.7387 19C53.5787 19 53.4427 18.944 53.3307 18.832C53.2187 18.72 53.1627 18.584 53.1627 18.424V2.536C53.1627 2.36 53.2187 2.224 53.3307 2.128C53.4427 2.016 53.5787 1.96 53.7387 1.96H55.7307C55.9067 1.96 56.0427 2.016 56.1387 2.128C56.2507 2.224 56.3067 2.36 56.3067 2.536V18.424C56.3067 18.584 56.2507 18.72 56.1387 18.832C56.0427 18.944 55.9067 19 55.7307 19H53.7387ZM59.9703 4.456C59.8103 4.456 59.6743 4.4 59.5623 4.288C59.4503 4.176 59.3943 4.04 59.3943 3.88V2.152C59.3943 1.992 59.4503 1.856 59.5623 1.744C59.6743 1.632 59.8103 1.576 59.9703 1.576H62.1543C62.3143 1.576 62.4503 1.632 62.5623 1.744C62.6903 1.856 62.7543 1.992 62.7543 2.152V3.88C62.7543 4.04 62.6983 4.176 62.5863 4.288C62.4743 4.4 62.3303 4.456 62.1543 4.456H59.9703ZM60.0663 19C59.9063 19 59.7703 18.944 59.6583 18.832C59.5463 18.72 59.4902 18.584 59.4902 18.424V7.096C59.4902 6.936 59.5463 6.8 59.6583 6.688C59.7703 6.576 59.9063 6.52 60.0663 6.52H62.0583C62.2343 6.52 62.3703 6.576 62.4663 6.688C62.5783 6.784 62.6343 6.92 62.6343 7.096V18.424C62.6343 18.584 62.5783 18.72 62.4663 18.832C62.3703 18.944 62.2343 19 62.0583 19H60.0663ZM66.3944 19C66.2344 19 66.0984 18.944 65.9864 18.832C65.8744 18.72 65.8184 18.584 65.8184 18.424V7.096C65.8184 6.936 65.8744 6.8 65.9864 6.688C66.0984 6.576 66.2344 6.52 66.3944 6.52H68.3624C68.5224 6.52 68.6584 6.576 68.7704 6.688C68.8824 6.8 68.9384 6.936 68.9384 7.096V8.08C69.8824 6.88 71.2184 6.28 72.9464 6.28C74.4184 6.28 75.5864 6.768 76.4504 7.744C77.3144 8.704 77.7464 10.016 77.7464 11.68V18.424C77.7464 18.584 77.6904 18.72 77.5784 18.832C77.4824 18.944 77.3464 19 77.1704 19H75.0584C74.8984 19 74.7624 18.944 74.6504 18.832C74.5384 18.72 74.4824 18.584 74.4824 18.424V11.824C74.4824 10.88 74.2504 10.152 73.7864 9.64C73.3384 9.112 72.6824 8.848 71.8184 8.848C70.9704 8.848 70.2984 9.112 69.8024 9.64C69.3224 10.168 69.0824 10.896 69.0824 11.824V18.424C69.0824 18.584 69.0264 18.72 68.9144 18.832C68.8184 18.944 68.6824 19 68.5064 19H66.3944ZM84.4189 19.24C83.6029 19.24 82.8509 19.08 82.1629 18.76C81.4909 18.424 80.9549 17.976 80.5549 17.416C80.1709 16.856 79.9789 16.24 79.9789 15.568C79.9789 14.48 80.4189 13.6 81.2989 12.928C82.1789 12.256 83.3869 11.8 84.9229 11.56L88.2109 11.08V10.576C88.2109 9.872 88.0349 9.344 87.6829 8.992C87.3309 8.64 86.7629 8.464 85.9789 8.464C85.4509 8.464 85.0189 8.568 84.6829 8.776C84.3629 8.968 84.1069 9.16 83.9149 9.352C83.7229 9.56 83.5949 9.696 83.5309 9.76C83.4669 9.952 83.3469 10.048 83.1709 10.048H81.3229C81.1789 10.048 81.0509 10 80.9389 9.904C80.8429 9.808 80.7949 9.68 80.7949 9.52C80.8109 9.12 81.0029 8.664 81.3709 8.152C81.7549 7.64 82.3389 7.2 83.1229 6.832C83.9069 6.464 84.8669 6.28 86.0029 6.28C87.8909 6.28 89.2669 6.704 90.1309 7.552C90.9949 8.4 91.4269 9.512 91.4269 10.888V18.424C91.4269 18.584 91.3709 18.72 91.2589 18.832C91.1629 18.944 91.0269 19 90.8509 19H88.9069C88.7469 19 88.6109 18.944 88.4989 18.832C88.3869 18.72 88.3309 18.584 88.3309 18.424V17.488C87.9789 18 87.4749 18.424 86.8189 18.76C86.1789 19.08 85.3789 19.24 84.4189 19.24ZM85.2349 16.96C86.1149 16.96 86.8349 16.672 87.3949 16.096C87.9549 15.52 88.2349 14.68 88.2349 13.576V13.072L85.8349 13.456C84.9069 13.6 84.2029 13.832 83.7229 14.152C83.2589 14.472 83.0269 14.864 83.0269 15.328C83.0269 15.84 83.2429 16.24 83.6749 16.528C84.1069 16.816 84.6269 16.96 85.2349 16.96ZM95.0819 19C94.9219 19 94.7859 18.944 94.6739 18.832C94.5619 18.72 94.5059 18.584 94.5059 18.424V7.12C94.5059 6.96 94.5619 6.824 94.6739 6.712C94.7859 6.584 94.9219 6.52 95.0819 6.52H97.0259C97.2019 6.52 97.3459 6.576 97.4579 6.688C97.5699 6.8 97.6259 6.944 97.6259 7.12V8.104C98.0099 7.592 98.4899 7.2 99.0659 6.928C99.6579 6.656 100.33 6.52 101.082 6.52H102.066C102.242 6.52 102.378 6.576 102.474 6.688C102.586 6.784 102.642 6.92 102.642 7.096V8.824C102.642 8.984 102.586 9.12 102.474 9.232C102.378 9.344 102.242 9.4 102.066 9.4H100.194C99.4419 9.4 98.8499 9.616 98.4179 10.048C97.9859 10.48 97.7699 11.072 97.7699 11.824V18.424C97.7699 18.584 97.7139 18.72 97.6019 18.832C97.4899 18.944 97.3459 19 97.1699 19H95.0819ZM106.77 23.56C106.642 23.56 106.53 23.512 106.434 23.416C106.338 23.32 106.29 23.208 106.29 23.08C106.29 22.936 106.322 22.808 106.386 22.696L108.258 18.256L103.65 7.384C103.586 7.24 103.554 7.128 103.554 7.048C103.57 6.904 103.626 6.784 103.722 6.688C103.818 6.576 103.938 6.52 104.082 6.52H106.026C106.33 6.52 106.546 6.672 106.674 6.976L109.866 14.824L113.154 6.976C113.282 6.672 113.498 6.52 113.802 6.52H115.722C115.85 6.52 115.962 6.568 116.058 6.664C116.17 6.76 116.226 6.872 116.226 7C116.226 7.112 116.194 7.24 116.13 7.384L109.338 23.104C109.194 23.408 108.97 23.56 108.666 23.56H106.77Z" fill="#FF6813"/>
<path d="M8.33333 0L0 6.25V18.75H16.6667V6.25L8.33333 0ZM8.85417 9.89583C8.85417 10.7604 8.15625 11.4583 7.29167 11.4583V15.625H6.25V11.4583C5.38542 11.4583 4.6875 10.7604 4.6875 9.89583V6.77083H5.72917V9.89583H6.25V6.77083H7.29167V9.89583H7.8125V6.77083H8.85417V9.89583ZM11.4583 15.625H10.4167V11.9792H9.375V8.85417C9.375 7.70833 10.3125 6.77083 11.4583 6.77083V15.625Z" fill="#FF6813"/>
</svg>
