<svg width="9" height="13" viewBox="0 0 9 13" fill="none" xmlns="http://www.w3.org/2000/svg">
<path d="M4.5 0.8125C3.31525 0.813898 2.17941 1.28516 1.34166 2.12291C0.503914 2.96066 0.0326524 4.09649 0.0312548 5.28125C0.0298358 6.24943 0.346091 7.19135 0.931505 7.9625C0.931505 7.9625 1.05338 8.12297 1.07329 8.14613L4.5 12.1875L7.92835 8.14409C7.94622 8.12256 8.0685 7.9625 8.0685 7.9625L8.06891 7.96128C8.65403 7.19047 8.97014 6.24899 8.96875 5.28125C8.96735 4.09649 8.49609 2.96066 7.65834 2.12291C6.82059 1.28516 5.68476 0.813898 4.5 0.8125V0.8125ZM4.5 6.90625C4.17861 6.90625 3.86443 6.81095 3.5972 6.63239C3.32997 6.45383 3.12169 6.20004 2.9987 5.90311C2.87571 5.60618 2.84353 5.27945 2.90623 4.96423C2.96893 4.64901 3.1237 4.35946 3.35096 4.1322C3.57822 3.90494 3.86776 3.75017 4.18298 3.68747C4.4982 3.62477 4.82493 3.65695 5.12186 3.77995C5.41879 3.90294 5.67258 4.11122 5.85114 4.37845C6.0297 4.64568 6.125 4.95986 6.125 5.28125C6.12447 5.71206 5.95309 6.12507 5.64846 6.4297C5.34383 6.73433 4.93082 6.90571 4.5 6.90625V6.90625Z" fill="#364353"/>
</svg>
