<svg width="12" height="12" viewBox="0 0 12 12" fill="none" xmlns="http://www.w3.org/2000/svg">
<path d="M5.77041 9.07081L2.67386 10.6625L3.26347 7.30242L3.30975 7.03867L3.11586 6.85397L0.597577 4.45507L4.08483 3.95953L4.34325 3.92281L4.46085 3.6898L6.00011 0.640175L7.53937 3.6898L7.65698 3.92281L7.9154 3.95953L11.402 4.45498L8.88432 6.85402L8.69049 7.03872L8.73676 7.30242L9.32646 10.663L6.22748 9.07077L5.99894 8.95335L5.77041 9.07081Z" stroke="#5BA727"/>
<path fill-rule="evenodd" clip-rule="evenodd" d="M6 0C5.86316 4.07484e-05 5.72634 0.0731657 5.65249 0.219375L4.01449 3.46463L0.34099 3.98663C0.0102401 4.03313 -0.11801 4.46363 0.12874 4.69913L2.77099 7.21613L2.14849 10.7636C2.08999 11.0959 2.41849 11.3561 2.70799 11.2076H2.70724L5.99899 9.51563L6 9.51615V0Z" fill="#5BA727"/>
</svg>
